<?xml version="1.0" standalone="no"?>
<!DOCTYPE svg PUBLIC "-//W3C//DTD SVG 20010904//EN"
 "http://www.w3.org/TR/2001/REC-SVG-20010904/DTD/svg10.dtd">
<svg version="1.0" xmlns="http://www.w3.org/2000/svg"
 width="1440.000000pt" height="1440.000000pt" viewBox="0 0 1440.000000 1440.000000"
 preserveAspectRatio="xMidYMid meet">
<metadata>
Created by potrace 1.11, written by Peter Selinger 2001-2013
</metadata>
<g transform="translate(0.000000,1440.000000) scale(0.100000,-0.100000)"
fill="#000000" stroke="none">
<path d="M3233 12072 l-83 -3 0 -3636 c0 -2000 3 -3633 6 -3630 4 3 15 2 25
-3 10 -6 27 -6 41 -1 13 4 32 5 43 1 11 -4 28 -3 38 2 9 5 17 5 17 0 0 -8 69
-7 77 2 3 3 15 1 27 -4 13 -4 29 -4 39 1 9 6 17 6 17 1 0 -8 69 -7 77 2 3 3
15 1 27 -4 13 -4 29 -4 39 1 9 6 17 6 17 1 0 -8 69 -7 77 2 3 3 15 1 27 -4 13
-4 29 -4 39 1 10 6 17 6 17 1 0 -5 17 -6 40 -2 22 4 42 5 45 2 8 -8 114 -8
108 0 -2 5 6 4 19 -1 14 -5 31 -5 40 0 11 6 19 5 23 -1 4 -7 12 -7 24 0 10 5
21 7 25 3 8 -9 115 -9 109 -1 -2 5 6 4 19 -1 14 -5 31 -5 40 0 11 6 19 5 23
-1 4 -7 12 -7 25 0 12 6 21 7 25 0 4 -6 15 -6 30 0 16 6 25 6 25 0 0 -6 9 -6
25 0 16 6 25 6 25 0 0 -6 10 -6 26 0 14 6 23 7 21 2 -6 -8 50 -8 59 1 4 3 15
2 25 -3 12 -7 20 -7 24 0 4 6 12 7 23 1 9 -5 26 -5 39 0 14 5 23 5 23 -1 0 -6
10 -6 26 0 14 6 23 7 21 2 -6 -8 50 -8 59 1 4 3 15 2 25 -3 12 -7 20 -7 24 0
4 6 12 7 23 1 9 -5 26 -5 39 0 14 5 23 5 23 -1 0 -6 10 -6 26 0 14 6 23 7 21
2 -3 -4 8 -7 24 -7 16 0 29 3 29 7 0 4 7 5 16 1 24 -9 57 -10 79 -2 11 3 29 3
40 -1 11 -4 28 -3 38 2 9 5 17 5 17 0 0 -8 69 -7 77 2 3 3 15 1 27 -4 13 -4
29 -4 39 1 9 6 17 6 17 1 0 -8 69 -7 77 2 3 3 15 1 27 -4 13 -4 29 -4 39 1 9
6 17 6 17 1 0 -9 64 -7 80 3 6 3 10 2 10 -4 0 -7 8 -7 25 -1 16 6 25 6 25 -1
0 -6 7 -6 18 -1 32 16 46 7 62 -38 9 -25 20 -54 24 -65 54 -148 205 -458 296
-610 36 -60 72 -121 80 -135 8 -14 17 -27 20 -30 11 -11 70 -99 70 -104 0 -3
8 -14 18 -24 9 -10 24 -29 32 -42 8 -12 25 -35 38 -50 12 -15 22 -31 22 -35 0
-4 6 -13 13 -19 8 -6 42 -47 78 -91 35 -44 131 -148 214 -230 130 -130 180
-176 278 -255 11 -8 24 -20 31 -25 6 -6 32 -26 59 -45 26 -18 47 -37 47 -42 0
-4 6 -8 13 -8 7 0 22 -8 33 -18 10 -10 37 -29 59 -42 22 -13 42 -27 45 -30 9
-10 202 -126 270 -161 36 -19 67 -37 68 -41 2 -5 7 -8 12 -8 4 0 47 -18 96
-41 89 -41 123 -56 137 -58 4 0 20 -7 35 -14 74 -38 343 -116 487 -143 6 -1
12 -3 15 -4 3 -1 16 -3 30 -4 14 -2 36 -6 50 -9 14 -4 48 -9 75 -10 28 -2 55
-6 61 -9 5 -4 24 -5 42 -4 17 1 32 -1 32 -6 0 -11 23 -6 32 7 5 7 8 7 8 0 0
-6 43 -11 103 -13 56 -2 123 -5 150 -5 26 -1 47 2 47 7 0 6 5 5 12 -2 7 -7 17
-8 30 -1 12 7 18 6 18 -1 0 -6 5 -8 12 -4 7 4 39 9 72 10 64 3 171 12 171 14
0 1 18 3 40 6 53 5 100 12 100 14 0 1 16 3 35 6 19 2 46 6 60 10 24 6 39 9 93
18 69 12 285 72 400 111 73 25 137 47 142 48 6 2 27 11 49 20 21 9 40 17 41
17 1 0 20 8 41 17 22 9 42 16 47 15 4 -1 7 2 7 8 0 5 5 10 12 10 22 0 251 119
381 197 21 12 40 23 42 23 3 0 11 4 18 10 52 45 73 60 81 60 9 0 89 61 94 72
2 5 8 8 13 8 13 0 199 151 199 162 0 4 5 8 11 8 19 0 279 270 279 290 0 5 4
10 8 12 15 6 110 137 154 211 23 39 46 74 50 75 5 2 8 12 8 22 0 10 4 20 8 22
14 6 94 179 89 192 -3 8 -27 24 -54 38 -26 13 -59 30 -73 38 -14 7 -32 17 -40
21 -8 4 -41 21 -72 38 -32 17 -58 28 -58 23 0 -4 -4 -2 -8 4 -4 6 -59 37 -122
69 -63 32 -123 63 -132 69 -11 7 -21 7 -26 1 -9 -9 -65 -110 -100 -180 -9 -16
-18 -32 -22 -35 -3 -3 -32 -44 -63 -92 -32 -48 -63 -93 -70 -101 -7 -7 -37
-42 -67 -77 -54 -64 -170 -183 -170 -175 0 3 -17 -13 -37 -35 -21 -22 -42 -40
-47 -40 -5 0 -14 -6 -20 -14 -27 -34 -348 -257 -352 -245 -1 2 -10 -3 -20 -12
-41 -35 -350 -178 -419 -194 -5 -1 -23 -7 -39 -14 -31 -12 -153 -48 -196 -57
-14 -2 -32 -7 -40 -9 -15 -4 -67 -13 -119 -20 -14 -2 -26 -4 -26 -5 0 -4 -44
-11 -95 -15 -30 -3 -80 -8 -110 -11 -72 -8 -366 -8 -455 0 -120 11 -128 12
-202 25 -95 17 -108 19 -108 21 0 1 -11 3 -25 6 -109 19 -344 100 -490 168
-98 46 -282 153 -288 168 -2 4 -9 8 -16 8 -7 0 -21 9 -31 20 -10 11 -22 20
-26 20 -24 0 -298 229 -408 341 -100 101 -271 309 -271 328 0 6 -4 11 -10 11
-5 0 -17 16 -26 35 -9 19 -20 35 -25 35 -5 0 -9 7 -9 15 0 8 -5 15 -11 15 -5
0 -8 4 -5 9 3 5 -1 11 -9 15 -8 3 -15 10 -15 16 0 5 -20 41 -45 80 -25 38 -42
70 -37 70 4 0 3 4 -3 8 -16 11 -131 233 -137 264 -2 7 -6 15 -9 18 -14 13 -85
188 -78 194 2 2 20 6 39 9 19 3 42 7 50 11 8 3 26 8 40 10 37 7 266 76 310 93
14 5 54 20 90 33 36 13 67 26 70 29 3 3 12 7 20 9 27 5 316 150 373 186 31 20
61 36 67 36 5 0 10 4 10 9 0 5 10 13 22 17 12 3 26 10 32 15 6 5 54 39 106 76
104 73 244 185 303 245 21 21 40 38 42 38 3 0 78 78 158 163 19 20 50 56 68
79 19 23 46 56 60 73 22 25 114 152 149 205 71 107 134 213 175 295 11 22 24
43 28 46 5 3 8 8 7 10 -1 2 14 40 35 84 67 146 81 180 84 198 0 4 7 20 15 35
20 38 112 329 131 412 29 126 65 294 69 325 6 41 11 70 22 140 9 58 13 91 19
170 3 39 9 102 13 140 16 161 7 700 -15 885 -10 80 -9 105 2 104 6 -1 51 -5
101 -8 49 -4 101 -9 114 -11 13 -3 42 -7 65 -10 51 -7 140 -24 185 -35 167
-42 213 -52 228 -53 6 0 12 -4 12 -9 0 -5 6 -8 13 -7 6 1 25 -3 40 -9 16 -7
35 -12 43 -12 8 0 14 -4 14 -8 0 -4 10 -8 22 -9 11 -1 24 -7 28 -13 4 -7 9
-11 11 -10 4 1 14 -1 54 -15 11 -3 22 -6 24 -5 2 1 7 -2 10 -7 3 -4 47 -28 96
-53 78 -38 282 -167 320 -203 8 -6 31 -25 52 -42 47 -38 153 -134 214 -196 59
-59 194 -221 210 -251 7 -13 15 -25 18 -28 12 -10 61 -90 61 -100 0 -5 5 -10
10 -10 6 0 10 -6 10 -14 0 -8 5 -16 11 -18 5 -2 11 -10 12 -19 2 -9 10 -27 18
-40 9 -13 22 -39 30 -56 8 -18 17 -33 20 -33 6 0 218 128 245 147 17 13 46 31
107 65 31 18 57 36 57 40 0 5 4 8 9 8 5 0 38 17 72 39 51 31 63 43 61 60 -3
21 -48 110 -91 181 -11 19 -24 42 -28 50 -6 14 -118 184 -135 205 -4 5 -23 29
-40 51 -18 23 -49 61 -68 85 -68 86 -267 276 -385 370 -103 82 -175 132 -320
224 -81 52 -291 155 -395 195 -47 18 -94 36 -105 40 -16 7 -107 35 -147 46 -5
1 -9 2 -10 4 -2 1 -10 3 -18 5 -8 1 -34 8 -56 14 -91 24 -221 50 -349 67 -168
23 -301 32 -483 33 -89 1 -123 4 -126 14 -2 6 -8 28 -15 47 -7 19 -14 40 -15
45 -2 6 -6 17 -9 25 -3 8 -11 33 -17 55 -6 22 -14 47 -17 55 -4 8 -7 17 -8 20
-1 3 -7 19 -14 35 -6 17 -17 44 -23 60 -6 17 -15 34 -20 39 -4 6 -8 16 -8 23
0 7 -18 49 -39 93 -22 44 -37 80 -34 80 3 0 0 8 -8 18 -8 9 -25 40 -39 67 -13
28 -29 53 -35 57 -5 4 -7 8 -3 8 5 0 -12 32 -37 70 -25 39 -45 72 -45 75 0 16
-181 262 -273 370 -78 91 -291 300 -377 368 -47 38 -92 74 -101 82 -53 42
-261 175 -359 228 -30 16 -70 38 -87 49 -18 11 -33 16 -33 12 0 -4 -8 0 -17 8
-21 17 -154 78 -171 78 -7 0 -12 5 -12 12 0 6 -3 8 -6 5 -4 -4 -19 0 -33 7
-77 41 -423 148 -561 172 -27 5 -62 12 -95 19 -11 2 -36 7 -55 9 -19 3 -51 8
-70 11 -19 4 -55 8 -80 10 -25 2 -70 7 -100 11 -30 4 -81 8 -112 8 -32 1 -58
4 -58 7 0 3 -260 7 -577 8 -1553 5 -2045 6 -2120 3z m2658 -645 c36 -3 83 -8
105 -11 21 -3 59 -7 84 -10 25 -4 56 -8 70 -11 14 -3 41 -7 60 -10 146 -20
390 -90 525 -150 16 -8 33 -11 37 -9 4 3 8 0 8 -5 0 -6 4 -11 10 -11 5 0 45
-17 87 -37 43 -20 80 -37 83 -37 3 -1 12 -6 20 -11 8 -5 35 -20 60 -33 92 -49
100 -53 106 -63 3 -6 16 -14 28 -18 28 -11 174 -119 256 -190 115 -99 251
-246 367 -397 64 -82 175 -257 173 -270 -1 -4 2 -10 7 -13 4 -3 19 -27 32 -53
13 -27 28 -48 33 -48 5 0 7 -3 4 -8 -2 -4 6 -30 20 -57 13 -28 24 -56 24 -62
0 -7 5 -13 10 -13 6 0 10 -8 10 -18 0 -10 4 -22 8 -28 5 -5 21 -43 36 -84 15
-41 33 -89 41 -107 13 -30 13 -31 -13 -41 -32 -13 -90 -25 -95 -20 -2 2 -11
-3 -20 -11 -10 -7 -17 -10 -17 -6 0 4 -7 2 -15 -5 -8 -7 -15 -9 -15 -5 0 4 -7
2 -15 -5 -8 -7 -15 -10 -15 -7 0 7 -145 -42 -212 -72 -27 -11 -48 -19 -48 -16
0 2 -33 -12 -72 -32 -40 -19 -75 -35 -78 -35 -3 0 -23 -10 -45 -23 -22 -12
-74 -40 -115 -62 -41 -22 -91 -50 -110 -62 -19 -11 -42 -24 -50 -28 -26 -12
-125 -78 -128 -85 -2 -5 -8 -8 -13 -8 -12 0 -203 -139 -207 -152 -2 -4 -10 -8
-18 -8 -7 0 -19 -9 -26 -20 -7 -11 -16 -20 -19 -20 -12 0 -70 -53 -213 -195
-196 -194 -282 -296 -413 -488 -35 -51 -66 -96 -71 -102 -23 -29 -129 -213
-169 -295 -15 -30 -32 -58 -36 -61 -5 -3 -8 -9 -8 -13 1 -6 -25 -64 -75 -173
-13 -28 -24 -55 -24 -58 0 -3 -9 -25 -19 -48 -10 -23 -38 -100 -61 -172 -24
-71 -45 -137 -48 -145 -3 -8 -6 -19 -7 -25 -2 -5 -12 -44 -23 -85 -12 -41 -23
-87 -26 -102 -2 -15 -7 -31 -9 -35 -3 -5 -8 -24 -11 -43 -3 -19 -8 -46 -11
-60 -2 -14 -7 -36 -10 -50 -2 -14 -7 -41 -10 -60 -3 -19 -7 -46 -10 -60 -8
-44 -16 -104 -20 -145 -16 -153 -19 -219 -19 -450 1 -234 4 -309 20 -440 2
-22 7 -60 10 -85 5 -47 10 -75 16 -100 3 -12 -110 -14 -857 -15 -473 -1 -864
0 -870 2 -7 2 -9 1001 -8 2976 1 1634 3 2983 3 2997 l0 25 978 -1 c537 -1
1007 -4 1043 -7z m2460 -2455 c0 -15 2 -36 5 -47 23 -118 33 -500 19 -735 -10
-176 -11 -183 -41 -380 -3 -25 -8 -58 -9 -75 -2 -16 -4 -30 -5 -30 -1 0 -3 -7
-5 -15 -2 -8 -6 -26 -9 -40 -3 -14 -8 -36 -11 -50 -3 -14 -8 -36 -10 -50 -2
-14 -14 -59 -25 -100 -12 -41 -25 -88 -29 -105 -5 -16 -14 -43 -21 -60 -6 -16
-11 -31 -11 -32 1 -8 -71 -206 -102 -278 -37 -88 -158 -320 -168 -323 -5 -2
-9 -8 -9 -13 0 -6 -26 -49 -57 -96 -32 -47 -62 -93 -68 -102 -5 -9 -13 -18
-16 -21 -4 -3 -33 -39 -66 -80 -33 -41 -98 -113 -145 -160 -87 -86 -105 -103
-168 -153 -19 -15 -46 -37 -60 -48 -14 -11 -50 -38 -80 -60 -30 -21 -60 -44
-67 -49 -7 -6 -17 -10 -22 -10 -5 0 -16 -7 -24 -15 -13 -12 -46 -32 -132 -79
-11 -6 -23 -15 -27 -21 -4 -5 -8 -7 -8 -2 0 4 -19 -5 -42 -20 -24 -14 -44 -26
-45 -25 -2 1 -33 -12 -70 -29 -123 -56 -324 -125 -423 -144 -8 -2 -15 -4 -15
-5 0 -1 -7 -3 -16 -5 -9 -1 -26 -6 -38 -10 -14 -4 -21 -2 -22 7 0 7 -3 22 -5
33 -6 26 -19 143 -30 265 -7 80 -2 515 5 515 1 0 4 29 6 65 3 36 7 79 10 95 2
17 7 48 10 70 3 22 8 51 11 63 3 13 7 42 10 64 7 46 12 73 14 73 3 0 13 47 24
108 2 12 9 34 14 48 10 24 22 78 24 107 1 6 6 12 11 12 5 0 7 7 3 15 -3 8 -1
15 5 15 6 0 8 3 6 8 -4 5 34 133 44 150 1 1 2 5 3 10 1 8 24 68 37 97 5 11 18
44 29 74 40 104 162 340 228 440 20 31 39 61 42 66 7 14 44 69 50 75 12 12 65
85 64 90 -1 3 4 10 11 15 7 6 40 44 75 85 139 164 324 330 520 466 132 92 431
251 505 270 6 1 21 6 35 12 14 5 27 10 30 10 3 1 32 11 65 22 32 11 71 23 85
26 14 3 30 6 37 8 7 1 15 4 17 7 3 3 14 5 26 6 15 1 20 -4 21 -25z"/>
</g>
</svg>
