<svg width="68" height="80" viewBox="0 0 68 80" fill="none" xmlns="http://www.w3.org/2000/svg">
<g clip-path="url(#clip0)">
<path d="M43.8482 49.842C49.6351 49.842 54.3264 44.3229 54.3264 37.5147C54.3264 30.7065 49.6351 25.1873 43.8482 25.1873C38.0612 25.1873 33.3699 30.7065 33.3699 37.5147C33.3699 44.3229 38.0612 49.842 43.8482 49.842Z" fill="#FEB137"/>
<path d="M42.5681 20.3027C41.582 20.4042 40.7127 19.5459 40.6264 18.3859L40.0799 11.0377C39.9936 9.8775 40.7231 8.85484 41.7091 8.75328C42.6952 8.65171 43.5645 9.51 43.6508 10.67L44.1973 18.0183C44.2837 19.1784 43.5543 20.2012 42.5681 20.3027Z" fill="#FFD15B"/>
<path d="M42.5681 20.3027C41.582 20.4042 40.7127 19.5459 40.6264 18.3859L40.0799 11.0377C39.9936 9.8775 40.7231 8.85484 41.7091 8.75328C42.6952 8.65171 43.5645 9.51 43.6508 10.67L44.1973 18.0183C44.2837 19.1784 43.5543 20.2012 42.5681 20.3027Z" fill="#FFD15B"/>
<path d="M58.1761 35.7105C58.0898 34.5503 58.8193 33.5277 59.8053 33.4261L66.0514 32.7831C67.0375 32.6816 67.9068 33.5398 67.9931 34.6998C68.0794 35.86 67.3499 36.8827 66.3639 36.9842L60.1178 37.6272C59.1317 37.7287 58.2623 36.8706 58.1761 35.7105Z" fill="#FFD15B"/>
<path d="M54.8603 48.0827C55.4966 47.1906 56.6271 47.0742 57.3854 47.8228L62.1884 52.5642C62.9466 53.3128 63.0456 54.6428 62.4093 55.5348C61.773 56.4269 60.6425 56.5433 59.8842 55.7947L55.0812 51.0533C54.323 50.3047 54.224 48.9748 54.8603 48.0827Z" fill="#FFD15B"/>
<path d="M54.8603 48.0827C55.4966 47.1906 56.6271 47.0742 57.3854 47.8228L62.1884 52.5642C62.9466 53.3128 63.0456 54.6428 62.4093 55.5348C61.773 56.4269 60.6425 56.5433 59.8842 55.7947L55.0812 51.0533C54.323 50.3047 54.224 48.9748 54.8603 48.0827Z" fill="#FFD15B"/>
<path d="M25.2384 18.8406C25.8747 17.9486 27.0052 17.8322 27.7634 18.5808L32.5664 23.3222C33.3247 24.0708 33.4236 25.4008 32.7873 26.2928C32.151 27.1849 31.0205 27.3013 30.2623 26.5527L25.4592 21.8113C24.701 21.0627 24.6021 19.7327 25.2384 18.8406Z" fill="#FFD15B"/>
<path d="M59.4189 15.3225C60.1771 16.0711 60.276 17.4011 59.6397 18.2931L55.6095 23.9437C54.9732 24.8358 53.8427 24.9522 53.0845 24.2036C52.3263 23.455 52.2273 22.125 52.8636 21.233L56.8938 15.5823C57.5301 14.6903 58.6606 14.5739 59.4189 15.3225Z" fill="#FFD15B"/>
<path d="M47.8059 52.4041C48.2623 44.8848 42.3777 39.0888 36.2002 40.853C34.9478 34.2144 29.9144 29.2498 23.8946 29.2498C16.7603 29.2498 11.0075 36.2244 11.3004 44.6934C5.13506 44.668 0 50.5677 0 57.9741C0 65.1364 4.81937 70.9734 10.851 71.2441V71.255H47.1156C51.549 71.255 55.143 67.0267 55.143 61.8111C55.143 56.8689 51.9157 52.8161 47.8059 52.4041Z" fill="#D8ECFE"/>
<path d="M47.8059 52.4041C48.2623 44.8848 42.3777 39.0888 36.2002 40.853C34.9477 34.2144 29.9144 29.2498 23.8946 29.2498C22.3553 29.2498 20.8805 29.5752 19.5167 30.1695C25.4134 30.3191 30.3129 35.2291 31.546 41.7656C37.7235 40.0014 43.6082 45.7975 43.1517 53.3167C47.2617 53.7289 50.4888 57.7816 50.4888 62.7236C50.4888 66.4886 48.6157 69.7381 45.9064 71.255H47.1155C51.5489 71.255 55.1428 67.0269 55.1428 61.8111C55.1429 56.8689 51.9157 52.8161 47.8059 52.4041Z" fill="#C4E2FF"/>
</g>
<defs>
<clipPath id="clip0">
<rect width="68" height="80" fill="white"/>
</clipPath>
</defs>
</svg>
