<svg width="48" height="46" viewBox="0 0 48 46" fill="none" xmlns="http://www.w3.org/2000/svg">
<path d="M44.1852 32.3558L39.3099 29.6583L43.5348 27.2709C44.3141 26.8305 44.5733 25.8681 44.1138 25.1214C43.6543 24.3748 42.6503 24.1263 41.8709 24.5665L36.051 27.8552L27.2759 22.9999L36.0494 18.1454L41.8711 21.4337C42.1321 21.5813 42.4186 21.6512 42.7012 21.6512C43.2621 21.6512 43.8083 21.3749 44.1138 20.8782C44.5731 20.1314 44.3137 19.1691 43.5344 18.7287L39.3088 16.3421L44.1852 13.644C44.9686 13.2106 45.2371 12.2505 44.7847 11.4997C44.3324 10.7488 43.3306 10.4915 42.5472 10.9252L37.6719 13.6229L37.6276 8.9218C37.6195 8.05488 36.8774 7.35436 35.975 7.36629C35.0704 7.37403 34.3435 8.08314 34.3518 8.95006L34.4127 15.426L25.6381 20.2811V10.5717L31.5211 7.38533C32.3087 6.95878 32.5863 6.00124 32.1412 5.24629C31.6961 4.49156 30.6967 4.22533 29.9091 4.65209L25.6381 6.96548V1.56974C25.6381 0.702827 24.9047 0 24.0001 0C23.0955 0 22.3621 0.702827 22.3621 1.56974V6.96548L18.0911 4.6523C17.3031 4.22554 16.3044 4.49156 15.8591 5.2465C15.414 6.00124 15.6916 6.95899 16.4791 7.38554L22.3619 10.5719V20.2811L13.5873 15.426L13.6482 8.95006C13.6565 8.08314 12.9297 7.37403 12.0251 7.36629C12.0201 7.36629 12.0153 7.36629 12.01 7.36629C11.1124 7.36629 10.3805 8.0597 10.3725 8.92201L10.3281 13.6229L5.4528 10.9252C4.6694 10.4915 3.6676 10.749 3.2153 11.4997C2.76299 12.2505 3.03141 13.2106 3.8148 13.644L8.691 16.3421L4.46476 18.7291C3.68551 19.1693 3.42605 20.1317 3.88535 20.8786C4.19089 21.3753 4.7371 21.6516 5.29817 21.6516C5.58078 21.6516 5.8671 21.5815 6.12831 21.4341L11.9506 18.1458L20.7244 23.0003L11.9491 27.8556L6.12831 24.5663C5.34949 24.1261 4.34486 24.3744 3.88535 25.1211C3.42583 25.8679 3.68507 26.8303 4.46432 27.2704L8.68991 29.6581L3.81458 32.3556C3.03119 32.789 2.76277 33.7491 3.21508 34.4998C3.51844 35.0034 4.06902 35.2849 4.63511 35.2849C4.91291 35.2849 5.19465 35.2171 5.45258 35.0744L10.3279 32.3767L10.3722 37.078C10.3803 37.9401 11.1122 38.6337 12.0098 38.6337C12.0148 38.6337 12.0198 38.6337 12.0249 38.6335C12.9295 38.6258 13.6563 37.9167 13.648 37.0497L13.5871 30.5736L22.3619 25.7185V35.4281L16.4791 38.6145C15.6916 39.041 15.414 39.9986 15.8591 40.7535C16.1603 41.2642 16.7152 41.5511 17.2865 41.5511C17.5595 41.5511 17.8365 41.4856 18.0911 41.3477L22.3621 39.0345V44.4303C22.3621 45.2972 23.0955 46 24.0001 46C24.9047 46 25.6381 45.2972 25.6381 44.4303V39.0345L29.9091 41.3477C30.1638 41.4856 30.4405 41.5511 30.7137 41.5511C31.2851 41.5511 31.84 41.2642 32.1412 40.7535C32.5863 39.9988 32.3087 39.041 31.5211 38.6145L25.6381 35.4281V25.7187L34.4127 30.5736L34.3503 37.0495C34.3418 37.9164 35.0684 38.6258 35.973 38.6337C35.9782 38.6339 35.9833 38.6339 35.9885 38.6339C36.8859 38.6339 37.6178 37.9405 37.6261 37.0786L37.6715 32.3767L42.5475 35.0746C42.8054 35.2173 43.0871 35.2851 43.3649 35.2851C43.931 35.2851 44.4816 35.0034 44.785 34.5C45.2373 33.7493 44.9689 32.7892 44.1852 32.3558Z" fill="white"/>
</svg>
